<mxfile host="65bd71144e" scale="2" border="0">
    <diagram id="gPzxjmuJN5hTN_7493X6" name="Page-1">
        <mxGraphModel dx="592" dy="563" grid="1" gridSize="16" guides="1" tooltips="1" connect="1" arrows="1" fold="1" page="1" pageScale="1" pageWidth="827" pageHeight="1169" math="0" shadow="0">
            <root>
                <mxCell id="0"/>
                <mxCell id="1" parent="0"/>
                <mxCell id="2" value="&amp;nbsp; 理论基础" style="rounded=1;whiteSpace=wrap;html=1;align=left;dashed=1;dashPattern=1 1;fontFamily=Times New Roman;" parent="1" vertex="1">
                    <mxGeometry x="203.5" y="448" width="420" height="40" as="geometry"/>
                </mxCell>
                <mxCell id="3" value="财务舞弊" style="rounded=0;whiteSpace=wrap;html=1;fontFamily=Times New Roman;" parent="1" vertex="1">
                    <mxGeometry x="283.5" y="458" width="60" height="20" as="geometry"/>
                </mxCell>
                <mxCell id="4" value="同群效应" style="rounded=0;whiteSpace=wrap;html=1;fontFamily=Times New Roman;" parent="1" vertex="1">
                    <mxGeometry x="354" y="458" width="60" height="20" as="geometry"/>
                </mxCell>
                <mxCell id="5" value="类别不平衡学习" style="rounded=0;whiteSpace=wrap;html=1;fontFamily=Times New Roman;" parent="1" vertex="1">
                    <mxGeometry x="423.5" y="458" width="100.5" height="20" as="geometry"/>
                </mxCell>
                <mxCell id="6" value="元学习" style="rounded=0;whiteSpace=wrap;html=1;align=center;fontFamily=Times New Roman;" parent="1" vertex="1">
                    <mxGeometry x="534" y="458" width="70" height="20" as="geometry"/>
                </mxCell>
                <mxCell id="7" value="&amp;nbsp; 数据集构建" style="rounded=1;whiteSpace=wrap;html=1;align=left;dashed=1;dashPattern=1 1;fontFamily=Times New Roman;" parent="1" vertex="1">
                    <mxGeometry x="204" y="603" width="420" height="40" as="geometry"/>
                </mxCell>
                <mxCell id="8" value="" style="edgeStyle=orthogonalEdgeStyle;rounded=0;orthogonalLoop=1;jettySize=auto;html=1;strokeColor=default;fontFamily=Times New Roman;" parent="1" source="9" target="11" edge="1">
                    <mxGeometry relative="1" as="geometry"/>
                </mxCell>
                <mxCell id="9" value="样本选取" style="rounded=0;whiteSpace=wrap;html=1;fontFamily=Times New Roman;" parent="1" vertex="1">
                    <mxGeometry x="288" y="613" width="60" height="20" as="geometry"/>
                </mxCell>
                <mxCell id="10" value="" style="edgeStyle=orthogonalEdgeStyle;rounded=0;orthogonalLoop=1;jettySize=auto;html=1;fontFamily=Times New Roman;" parent="1" source="11" target="13" edge="1">
                    <mxGeometry relative="1" as="geometry"/>
                </mxCell>
                <mxCell id="11" value="数据清洗" style="rounded=0;whiteSpace=wrap;html=1;fontFamily=Times New Roman;" parent="1" vertex="1">
                    <mxGeometry x="368" y="613" width="60" height="20" as="geometry"/>
                </mxCell>
                <mxCell id="12" value="" style="edgeStyle=orthogonalEdgeStyle;rounded=0;orthogonalLoop=1;jettySize=auto;html=1;fontFamily=Times New Roman;" parent="1" source="13" target="14" edge="1">
                    <mxGeometry relative="1" as="geometry"/>
                </mxCell>
                <mxCell id="13" value="特征构造" style="rounded=0;whiteSpace=wrap;html=1;fontFamily=Times New Roman;" parent="1" vertex="1">
                    <mxGeometry x="448" y="613" width="60" height="20" as="geometry"/>
                </mxCell>
                <mxCell id="14" value="特征选择" style="rounded=0;whiteSpace=wrap;html=1;fontFamily=Times New Roman;" parent="1" vertex="1">
                    <mxGeometry x="528" y="613" width="60" height="20" as="geometry"/>
                </mxCell>
                <mxCell id="15" value="&amp;nbsp; &amp;nbsp; 元学习&lt;div&gt;&amp;nbsp; 模型构建&lt;/div&gt;" style="rounded=1;whiteSpace=wrap;html=1;align=left;dashed=1;dashPattern=1 1;fontFamily=Times New Roman;" parent="1" vertex="1">
                    <mxGeometry x="204" y="515" width="420" height="60" as="geometry"/>
                </mxCell>
                <mxCell id="34" value="" style="edgeStyle=none;html=1;fontFamily=Times New Roman;" parent="1" source="17" target="19" edge="1">
                    <mxGeometry relative="1" as="geometry"/>
                </mxCell>
                <mxCell id="17" value="类别不平衡&lt;span style=&quot;background-color: transparent;&quot;&gt;学习&lt;/span&gt;&lt;div&gt;&lt;span style=&quot;background-color: transparent;&quot;&gt;技术&lt;/span&gt;&lt;/div&gt;" style="rounded=0;whiteSpace=wrap;html=1;fontFamily=Times New Roman;" parent="1" vertex="1">
                    <mxGeometry x="284" y="523" width="100.5" height="42" as="geometry"/>
                </mxCell>
                <mxCell id="35" value="" style="edgeStyle=none;html=1;fontFamily=Times New Roman;" parent="1" source="19" target="20" edge="1">
                    <mxGeometry relative="1" as="geometry"/>
                </mxCell>
                <mxCell id="19" value="基学习器" style="rounded=0;whiteSpace=wrap;html=1;fontFamily=Times New Roman;" parent="1" vertex="1">
                    <mxGeometry x="414.5" y="525" width="80" height="40" as="geometry"/>
                </mxCell>
                <mxCell id="20" value="元学习融合" style="rounded=0;whiteSpace=wrap;html=1;fontFamily=Times New Roman;" parent="1" vertex="1">
                    <mxGeometry x="524" y="525" width="84.5" height="40" as="geometry"/>
                </mxCell>
                <mxCell id="21" value="&lt;font style=&quot;font-size: 17px;&quot;&gt;结&amp;nbsp; 论&amp;nbsp; 与&amp;nbsp; 展&amp;nbsp; 望&lt;/font&gt;" style="rounded=1;whiteSpace=wrap;html=1;align=center;dashed=1;dashPattern=1 1;direction=south;labelPosition=center;verticalLabelPosition=middle;verticalAlign=middle;textDirection=vertical-lr;fontFamily=Times New Roman;" parent="1" vertex="1">
                    <mxGeometry x="640" y="448" width="40" height="464" as="geometry"/>
                </mxCell>
                <mxCell id="22" value="&lt;font style=&quot;font-size: 17px;&quot;&gt;绪&amp;nbsp; &amp;nbsp; &amp;nbsp; &amp;nbsp; &amp;nbsp; 论&lt;/font&gt;" style="rounded=1;whiteSpace=wrap;html=1;align=center;dashed=1;dashPattern=1 1;direction=south;textDirection=vertical-lr;fontFamily=Times New Roman;" parent="1" vertex="1">
                    <mxGeometry x="144" y="450" width="40" height="462" as="geometry"/>
                </mxCell>
                <mxCell id="24" value="" style="edgeStyle=none;orthogonalLoop=1;jettySize=auto;html=1;rounded=0;shape=flexArrow;width=21.923076923076923;endSize=2.796153846153846;exitX=0.5;exitY=1;exitDx=0;exitDy=0;endWidth=30.322580645161292;fontFamily=Times New Roman;" parent="1" edge="1">
                    <mxGeometry width="80" relative="1" as="geometry">
                        <mxPoint x="414" y="492" as="sourcePoint"/>
                        <mxPoint x="414.19000000000005" y="512" as="targetPoint"/>
                    </mxGeometry>
                </mxCell>
                <mxCell id="25" value="" style="edgeStyle=none;orthogonalLoop=1;jettySize=auto;html=1;rounded=0;shape=flexArrow;width=21.923076923076923;endSize=2.796153846153846;exitX=0.5;exitY=1;exitDx=0;exitDy=0;endWidth=30.322580645161292;fontFamily=Times New Roman;" parent="1" edge="1">
                    <mxGeometry width="80" relative="1" as="geometry">
                        <mxPoint x="412.99999999999994" y="579" as="sourcePoint"/>
                        <mxPoint x="413.19" y="599" as="targetPoint"/>
                    </mxGeometry>
                </mxCell>
                <mxCell id="26" value="" style="edgeStyle=none;orthogonalLoop=1;jettySize=auto;html=1;rounded=0;shape=flexArrow;width=21.923076923076923;endSize=2.796153846153846;exitX=0.5;exitY=1;exitDx=0;exitDy=0;endWidth=30.322580645161292;fontFamily=Times New Roman;" parent="1" edge="1">
                    <mxGeometry width="80" relative="1" as="geometry">
                        <mxPoint x="413.28" y="648" as="sourcePoint"/>
                        <mxPoint x="413.47" y="668" as="targetPoint"/>
                    </mxGeometry>
                </mxCell>
                <mxCell id="27" value="&amp;nbsp; 实证分析" style="rounded=1;whiteSpace=wrap;html=1;align=left;dashed=1;dashPattern=1 1;fontFamily=Times New Roman;" parent="1" vertex="1">
                    <mxGeometry x="204" y="672" width="420" height="240" as="geometry"/>
                </mxCell>
                <mxCell id="28" value="&amp;nbsp; &amp;nbsp;同群效应是否有效？" style="rounded=0;whiteSpace=wrap;html=1;fontFamily=Times New Roman;" parent="1" vertex="1">
                    <mxGeometry x="288" y="864" width="272" height="20" as="geometry"/>
                </mxCell>
                <mxCell id="29" value="&amp;nbsp; &amp;nbsp;类别不平衡学习是否有效？" style="rounded=0;whiteSpace=wrap;html=1;fontFamily=Times New Roman;" parent="1" vertex="1">
                    <mxGeometry x="288" y="826" width="272" height="20" as="geometry"/>
                </mxCell>
                <mxCell id="30" value="&amp;nbsp; 元学习是否有效？" style="rounded=0;whiteSpace=wrap;html=1;fontFamily=Times New Roman;" parent="1" vertex="1">
                    <mxGeometry x="288" y="790" width="272" height="20" as="geometry"/>
                </mxCell>
                <mxCell id="44" style="edgeStyle=none;html=1;exitX=1;exitY=0.5;exitDx=0;exitDy=0;entryX=0;entryY=0.5;entryDx=0;entryDy=0;fontFamily=Times New Roman;" edge="1" parent="1" source="38" target="39">
                    <mxGeometry relative="1" as="geometry"/>
                </mxCell>
                <mxCell id="38" value="基学习器结果" style="rounded=0;whiteSpace=wrap;html=1;fontFamily=Times New Roman;" vertex="1" parent="1">
                    <mxGeometry x="303.87" y="690" width="93.75" height="30" as="geometry"/>
                </mxCell>
                <mxCell id="39" value="基学习器对比分析" style="rounded=0;whiteSpace=wrap;html=1;fontFamily=Times New Roman;" vertex="1" parent="1">
                    <mxGeometry x="428" y="690" width="113.75" height="30" as="geometry"/>
                </mxCell>
                <mxCell id="45" style="edgeStyle=none;html=1;exitX=1;exitY=0.5;exitDx=0;exitDy=0;entryX=0;entryY=0.5;entryDx=0;entryDy=0;fontFamily=Times New Roman;" edge="1" parent="1" source="41" target="42">
                    <mxGeometry relative="1" as="geometry"/>
                </mxCell>
                <mxCell id="41" value="元学习结果" style="rounded=0;whiteSpace=wrap;html=1;fontFamily=Times New Roman;" vertex="1" parent="1">
                    <mxGeometry x="303.87" y="738" width="93.75" height="30" as="geometry"/>
                </mxCell>
                <mxCell id="42" value="元学习对比分析" style="rounded=0;whiteSpace=wrap;html=1;fontFamily=Times New Roman;" vertex="1" parent="1">
                    <mxGeometry x="428" y="738" width="113.75" height="30" as="geometry"/>
                </mxCell>
            </root>
        </mxGraphModel>
    </diagram>
</mxfile>